<svg width="38" height="51" xmlns="http://www.w3.org/2000/svg"><path d="M34.284 15.208c0 .347-.676.901-2.028 1.664-1.803 1.04-3.085 1.872-3.848 2.496-1.11.936-2.167 2.167-3.172 3.692-.277.416-1.11 1.82-2.496 4.212-.97 1.664-1.63 2.496-1.976 2.496-.208 0-.312-.208-.312-.624 0-.035.017-.139.052-.312v-.52c0-5.13 1.196-9.533 3.588-13.208 2.115-3.259 4.316-4.888 6.604-4.888.277 0 .416.295.416.884 0 .07-.251.347-.754.832s-.754.936-.754 1.352c0 1.352.624 2.028 1.872 2.028.208 0 .511-.13.91-.39s.685-.39.858-.39h.78c.173.347.26.572.26.676Zm-7.332-9.464c-5.061 7.765-7.644 15.427-7.748 22.984-.45-.035-.763-.763-.936-2.184l-.728-6.448c-.45-3.016-1.161-6.31-2.132-9.88-.624-2.253-.936-4.125-.936-5.616 0-.347.26-.59.78-.728.208.104.416.156.624.156.763 0 1.248-.19 1.456-.572.139-.243.208-.78.208-1.612 0-.693.399-1.04 1.196-1.04.659 0 1.049.355 1.17 1.066.121.71.32 1.066.598 1.066.243 0 .65-.225 1.222-.676.572-.45.962-.676 1.17-.676.901 0 1.352.312 1.352.936 0 .243-.052.555-.156.936-.104.381-.156.641-.156.78 0 .485.347.728 1.04.728.139 0 .33-.052.572-.156.243-.104.416-.156.52-.156.381 0 .676.364.884 1.092Zm10.972 17.68c0 .52-.347.78-1.04.78-.07 0-.217-.017-.442-.052a3.761 3.761 0 0 0-.546-.052c-.45 0-.84.19-1.17.572-.33.381-.494.832-.494 1.352 0 .59.433 1.335 1.3 2.236.867.901 1.3 1.421 1.3 1.56 0 .45-.433.676-1.3.676-.416 0-1.205-.243-2.366-.728s-2.037-.728-2.626-.728c-.59 0-1.716.33-3.38.988-1.664.659-2.964.988-3.9.988-.416 0-.624-.225-.624-.676.97-2.15 2.037-3.978 3.198-5.486 1.161-1.508 2.418-2.505 3.77-2.99 1.04-.381 2.617-.572 4.732-.572.797 0 1.595.269 2.392.806.797.537 1.196.98 1.196 1.326ZM17.54 27.168c0 .416-.13.884-.39 1.404-.26.52-.46.78-.598.78-.416 0-1.144-1.456-2.184-4.368-2.981-4.333-6.361-7.765-10.14-10.296-.173-.104-.26-.208-.26-.312 0-.52.364-.78 1.092-.78.277 0 .71.104 1.3.312.59.208 1.005.312 1.248.312.381 0 .797-.225 1.248-.676.45-.45.676-.901.676-1.352 0-.763-.364-1.439-1.092-2.028L7.348 9.28c0-.173.165-.373.494-.598.33-.225.667-.338 1.014-.338.763 0 1.681.52 2.756 1.56 1.179 1.144 2.219 2.617 3.12 4.42.173.347.693 2.461 1.56 6.344.832 3.71 1.248 5.876 1.248 6.5ZM14.784 29.3c-.59.45-1.127.676-1.612.676-.208 0-.745-.442-1.612-1.326-.867-.884-1.699-1.326-2.496-1.326h-.988c-.485 0-1.421.46-2.808 1.378-1.387.919-2.288 1.378-2.704 1.378-.797 0-1.196-.381-1.196-1.144 0-.381.303-.884.91-1.508s.91-1.265.91-1.924c0-.901-.208-1.595-.624-2.08-.243-.277-.641-.52-1.196-.728-.416-.173-.624-.347-.624-.52 0-.659.26-.988.78-.988h.52c.45 0 1.118-.035 2.002-.104.884-.07 1.551-.104 2.002-.104 1.317 0 2.375.19 3.172.572.59.312 1.37.936 2.34 1.872 1.907 1.803 2.981 3.761 3.224 5.876Zm10.972 8.216c0 1.283-.32 2.609-.962 3.978-.641 1.37-1.222 2.054-1.742 2.054-.381 0-.572-.347-.572-1.04 0-.173.017-.45.052-.832v-.936c0-1.421-.433-2.6-1.3-3.536-.867-.936-1.872-1.404-3.016-1.404a3.96 3.96 0 0 0-2.522.884 4.034 4.034 0 0 0-1.456 2.262c-.225.919-.407 2.071-.546 3.458-.07.832-.19 1.248-.364 1.248-.45 0-.988-.537-1.612-1.612-.728-1.317-1.092-2.756-1.092-4.316 0-1.733.71-3.259 2.132-4.576 1.56-1.421 3.484-2.132 5.772-2.132 2.219 0 3.978.59 5.278 1.768 1.3 1.179 1.95 2.756 1.95 4.732Zm-4.472 2.6c0 .797-.277 1.595-.832 2.392-.659 1.005-1.005 1.595-1.04 1.768-.035.936-.19 2.496-.468 4.68-.208 1.11-.59 1.664-1.144 1.664-.59 0-.884-1.075-.884-3.224 0-.07.017-.208.052-.416v-.416c0-1.421-.234-2.695-.702-3.822-.468-1.127-.702-1.777-.702-1.95 0-2.288.867-3.432 2.6-3.432.763 0 1.473.269 2.132.806s.988 1.187.988 1.95Zm-.52-31.72c0-.312-.147-.693-.442-1.144-.295-.45-.511-.676-.65-.676-.243 0-.485.295-.728.884-.243.59-.364 1.265-.364 2.028 0 .97.104 1.915.312 2.834.208.919.381 1.378.52 1.378.901-1.976 1.352-3.744 1.352-5.304Zm7.28 7.8c-.243-.139-.45-.208-.624-.208-.208 0-.381.017-.52.052-.555.624-1.283 1.733-2.184 3.328 2.08-1.699 3.19-2.756 3.328-3.172Zm3.692 9.204c0-.485-.26-.78-.78-.884-2.253.97-3.38 1.803-3.38 2.496 0 .104.017.173.052.208.104-.035 1.317-.399 3.64-1.092.312-.312.468-.555.468-.728ZM13.64 20.096c-.901-2.53-1.508-4.073-1.82-4.628l-1.612.26c.381.763 1.525 2.219 3.432 4.368Zm-2.704 5.356c-1.04-.555-2.392-1.161-4.056-1.82-.416.52-.624.901-.624 1.144 0 .104.07.225.208.364 2.01.07 3.501.173 4.472.312Z" fill="#904669"/></svg>